#!OML:ASF E:\Steps\Project 1\Capture day 1\Session 2\Subject.ASF
:FULLY-SPECIFIED
:DEGREES
47
root 9.56804 16.3249 9.53474 -152.325 -1.58776 178.452
lowerback -29.7851 -1.67032 -5.7172
upperback -2.85153 -1.19447 -0.711434
thorax 12.5127 -1.22571 1.7913
lowerneck -0.512141 0.501595 -3.23573
upperneck 7.72711 -0.398998 9.80908
head 2.63273 -0.228233 3.82797
rclavicle -3.23025e-015 -1.47101e-014
rhumerus -34.0584 -15.037 -83.1707
rradius 32.1895
rwrist -1.10073
rhand -7.85862 -49.5157
rfingers 7.12502
rthumb 18.0449 -438.699
lclavicle -3.23025e-015 -1.47101e-014
lhumerus -28.3842 1.71662 84.3312
lradius 27.3088
lwrist -2.82888
lhand -19.7013 -9.1474
lfingers 7.12502
lthumb 6.62817 20.7289
rfemur -23.6424 8.28811 17.8175
rtibia 5.99791
rfoot -18.7916 -5.67601
rtoes -31.0458
lfemur -25.6206 -10.659 -18.2181
ltibia 7.39702
lfoot -7.16407 3.04102
ltoes -40.7672
48
root 9.57326 16.321 9.55049 -151.95 -1.75116 178.254
lowerback -29.8408 -1.82243 -5.99044
upperback -2.99087 -1.33769 -0.709258
thorax 12.3886 -1.313 1.8841
lowerneck -0.498266 0.493749 -3.21013
upperneck 7.6924 -0.421001 9.90631
head 2.62116 -0.239592 3.85641
rclavicle -8.94531e-016 -4.29375e-014
rhumerus -34.1805 -15.5803 -82.8535
rradius 31.5693
rwrist -0.445952
rhand -5.83276 -54.5053
rfingers 7.12502
rthumb 19.9931 -443.497
lclavicle -8.94531e-016 -4.29375e-014
lhumerus -28.5566 2.18194 84.1068
lradius 26.8199
lwrist -3.33668
lhand -19.3801 -8.88243
lfingers 7.12502
lthumb 6.93821 20.9839
rfemur -24.1146 8.27872 17.5607
rtibia 6.0942
rfoot -18.7487 -5.87472
rtoes -30.3329
lfemur -26.2995 -10.5885 -18.3398
ltibia 7.78181
lfoot -7.22284 2.70961
ltoes -40.7057
49
root 9.56352 16.3206 9.53015 -152.305 -1.47233 178.264
lowerback -29.703 -1.73213 -5.91142
upperback -2.88837 -1.22125 -0.75446
thorax 12.4352 -1.24793 1.84134
lowerneck -0.457526 0.499705 -3.22943
upperneck 7.6741 -0.424808 10.0031
head 2.60907 -0.243838 3.89389
rclavicle -1.43125e-014 -3.22031e-014
rhumerus -34.3229 -16.1343 -82.5155
rradius 30.942
rwrist 0.179841
rhand -6.40538 -52.9605
rfingers 7.12502
rthumb 19.4426 -442.008
lclavicle -1.43125e-014 -3.22031e-014
lhumerus -28.6741 2.64142 83.8998
lradius 26.193
lwrist -3.52696
lhand -19.9595 -10.8306
lfingers 7.12502
lthumb 6.37892 19.0534
rfemur -23.61 8.21108 17.5677
rtibia 5.98412
rfoot -18.7905 -5.50955
rtoes -29.9174
lfemur -25.6152 -10.8134 -18.4689
ltibia 7.45693
lfoot -7.22629 3.1562
ltoes -41.0535
50
root 9.56163 16.3203 9.52841 -152.295 -1.42959 178.289
lowerback -29.67 -1.74375 -5.89239
upperback -2.88644 -1.24626 -0.723038
thorax 12.4257 -1.25769 1.85647
lowerneck -0.501752 0.50708 -3.28496
upperneck 7.6653 -0.422281 10.1042
head 2.61593 -0.241993 3.94148
rclavicle 0 1.94809e-014
rhumerus -34.4581 -16.545 -82.2259
rradius 30.4374
rwrist 0.433136
rhand -6.31353 -55.5582
rfingers 7.12502
rthumb 19.5309 -444.597
lclavicle 0 1.94809e-014
lhumerus -28.6845 3.17747 83.7164
lradius 25.4738
lwrist -3.90315
lhand -20.2118 -11.5601
lfingers 7.12502
lthumb 6.13536 18.3311
rfemur -23.6722 8.32295 17.5723
rtibia 6.0766
rfoot -18.8481 -5.72476
rtoes -30.5777
lfemur -25.6298 -10.8301 -18.4485
ltibia 7.50701
lfoot -7.33213 3.16979
ltoes -40.8743
51
root 9.55847 16.32 9.52019 -152.441 -1.25074 178.377
lowerback -29.642 -1.6786 -5.81885
upperback -2.77484 -1.1611 -0.707875
thorax 12.5351 -1.20983 1.86643
lowerneck -0.632205 0.504943 -3.29366
upperneck 7.65403 -0.430807 10.199
head 2.63856 -0.241405 3.97839
rclavicle -5.2181e-015 -7.15625e-015
rhumerus -34.5204 -16.997 -81.9313
rradius 29.9251
rwrist 0.683621
rhand -8.60058 -50.5289
rfingers 7.12502
rthumb 17.3309 -439.776
lclavicle -5.2181e-015 -7.15625e-015
lhumerus -28.696 3.53798 83.576
lradius 24.8572
lwrist -4.11837
lhand -19.9804 -11.2237
lfingers 7.12502
lthumb 6.35871 18.6608
rfemur -23.5617 8.4743 17.6399
rtibia 6.1716
rfoot -18.9355 -5.769
rtoes -30.9903
lfemur -25.3822 -10.888 -18.3964
ltibia 7.42306
lfoot -7.4168 3.37591
ltoes -40.4372
52
root 9.55792 16.3181 9.51601 -152.471 -1.09107 178.437
lowerback -29.6578 -1.65362 -5.80883
upperback -2.69716 -1.11708 -0.677095
thorax 12.6285 -1.18705 1.9105
lowerneck -0.749649 -0.136297 -3.31113
upperneck 7.75652 -0.279882 10.2261
head 2.69194 0.267445 4.01903
rclavicle 6.70898e-015 1.15295e-014
rhumerus -34.5166 -17.5289 -81.5818
rradius 29.2811
rwrist 1.21523
rhand -7.26574 -53.2324
rfingers 7.12502
rthumb 18.6152 -442.362
lclavicle 6.70898e-015 1.15295e-014
lhumerus -28.7468 3.9215 83.4229
lradius 24.3619
lwrist -4.27972
lhand -19.6405 -11.6722
lfingers 7.12502
lthumb 6.68683 18.2022
rfemur -23.5736 8.6442 17.6445
rtibia 6.25476
rfoot -18.9253 -5.73031
rtoes -30.883
lfemur -25.2703 -10.7988 -18.3655
ltibia 7.30529
lfoot -7.36894 3.46033
ltoes -40.3142
53
root 9.55913 16.3186 9.51857 -152.386 -1.07457 178.413
lowerback -29.6696 -1.71134 -5.88401
upperback -2.69216 -1.17146 -0.636852
thorax 12.6447 -1.2165 1.9732
lowerneck -0.78719 -0.116445 -3.36772
upperneck 7.73228 -0.254373 10.3295
head 2.69062 0.282362 4.06807
rclavicle 3.67752e-015 1.59028e-015
rhumerus -34.5899 -17.9364 -81.2279
rradius 28.7042
rwrist 1.63751
rhand -7.27552 -53.0744
rfingers 7.12502
rthumb 18.6058 -442.205
lclavicle 3.67752e-015 1.59028e-015
lhumerus -28.8509 4.34725 83.2391
lradius 23.8674
lwrist -4.58167
lhand -19.5481 -12.2134
lfingers 7.12502
lthumb 6.77604 17.6582
rfemur -23.7132 8.88867 17.5335
rtibia 6.32965
rfoot -18.8876 -5.93882
rtoes -30.6142
lfemur -25.4267 -10.5407 -18.4202
ltibia 7.40558
lfoot -7.36794 3.21994
ltoes -40.4136
54
root 9.5585 16.3191 9.52272 -152.259 -1.13358 178.381
lowerback -29.7151 -1.76673 -5.9304
upperback -2.71415 -1.23574 -0.608787
thorax 12.6452 -1.25063 2.00249
lowerneck -0.76669 -0.110377 -3.37337
upperneck 7.69636 -0.244889 10.43
head 2.67521 0.290491 4.10475
rclavicle 6.16232e-015 -2.94201e-014
rhumerus -34.7407 -18.326 -80.8502
rradius 28.2032
rwrist 1.85263
rhand -7.58497 -52.4385
rfingers 7.12502
rthumb 18.3081 -441.597
lclavicle 6.16232e-015 -2.94201e-014
lhumerus -28.9328 4.63008 83.0261
lradius 23.2374
lwrist -4.95484
lhand -19.8693 -12.0408
lfingers 7.12502
lthumb 6.46599 17.8405
rfemur -23.9006 8.95422 17.453
rtibia 6.36437
rfoot -18.8535 -6.07538
rtoes -30.466
lfemur -25.7213 -10.417 -18.4469
ltibia 7.66277
lfoot -7.46115 3.02842
ltoes -40.2052
55
root 9.55647 16.3177 9.5229 -152.172 -1.1014 178.414
lowerback -29.7909 -1.76492 -5.91101
upperback -2.71759 -1.24117 -0.586424
thorax 12.6757 -1.25461 2.01181
lowerneck -0.739907 -0.109848 -3.35348
upperneck 7.65842 -0.24224 10.5291
head 2.65824 0.296195 4.13565
rclavicle -2.38542e-015 -5.96354e-015
rhumerus -34.8618 -18.8614 -80.4307
rradius 27.6261
rwrist 2.24137
rhand -7.73965 -52.3054
rfingers 7.12502
rthumb 18.1593 -441.478
lclavicle -2.38542e-015 -5.96354e-015
lhumerus -28.9921 4.84325 82.832
lradius 22.5635
lwrist -5.16313
lhand -20.4977 -12.1059
lfingers 7.12502
lthumb 5.85928 17.7931
rfemur -24.0401 8.91013 17.4712
rtibia 6.39474
rfoot -18.8483 -5.99506
rtoes -30.4019
lfemur -25.8609 -10.4649 -18.3836
ltibia 7.73481
lfoot -7.50261 3.12191
ltoes -39.8452
56
root 9.5551 16.3166 9.51897 -152.146 -0.985439 178.386
lowerback -29.8492 -1.77143 -5.97556
upperback -2.69712 -1.22338 -0.591046
thorax 12.7232 -1.25125 2.04645
lowerneck -0.739793 -0.111615 -3.34588
upperneck 7.62151 -0.243588 10.6328
head 2.64712 0.299895 4.17099
rclavicle -7.65321e-015 1.94809e-014
rhumerus -34.9739 -19.3464 -80.0743
rradius 27.1303
rwrist 2.7624
rhand -7.92401 -52.3841
rfingers 7.12502
rthumb 17.982 -441.573
lclavicle -7.65321e-015 1.94809e-014
lhumerus -29.0897 5.09028 82.6424
lradius 22.0347
lwrist -5.36779
lhand -20.8134 -11.8568
lfingers 7.12502
lthumb 5.55451 18.0504
rfemur -24.078 8.86258 17.4222
rtibia 6.42616
rfoot -18.9736 -5.93412
rtoes -30.7336
lfemur -25.8372 -10.4451 -18.4468
ltibia 7.67766
lfoot -7.50705 3.20659
ltoes -39.6951
57
root 9.55269 16.3168 9.51282 -152.166 -0.918043 178.278
lowerback -29.896 -1.8017 -6.06909
upperback -2.64682 -1.21653 -0.633653
thorax 12.7996 -1.25272 2.05178
lowerneck -0.773663 -0.122376 -3.33397
upperneck 7.5882 -0.25796 10.737
head 2.64465 0.297986 4.20601
rclavicle -2.78299e-015 2.46493e-014
rhumerus -35.1596 -19.9098 -79.6715
rradius 26.7062
rwrist 3.2929
rhand -7.72826 -52.4999
rfingers 7.12502
rthumb 18.1703 -441.671
lclavicle -2.78299e-015 2.46493e-014
lhumerus -29.1663 5.35447 82.3976
lradius 21.5147
lwrist -5.98133
lhand -20.6741 -11.3039
lfingers 7.12502
lthumb 5.68896 18.5997
rfemur -24.0094 8.83074 17.2923
rtibia 6.40435
rfoot -19.0607 -5.97546
rtoes -31.3523
lfemur -25.746 -10.4576 -18.6153
ltibia 7.62681
lfoot -7.52794 3.20398
ltoes -39.6615
58
root 9.54878 16.3172 9.50633 -152.214 -0.919589 178.235
lowerback -29.963 -1.84037 -6.07489
upperback -2.55332 -1.2415 -0.637455
thorax 12.9383 -1.26281 2.03914
lowerneck -0.808709 -0.122387 -3.35867
upperneck 7.56286 -0.258271 10.8438
head 2.64432 0.30186 4.2498
rclavicle 1.03865e-014 2.14687e-014
rhumerus -35.2592 -20.7333 -79.0899
rradius 26.0941
rwrist 4.03969
rhand -7.35375 -52.3644
rfingers 7.12502
rthumb 18.5306 -441.502
lclavicle 1.03865e-014 2.14687e-014
lhumerus -29.2137 5.64493 82.2038
lradius 20.9388
lwrist -6.48612
lhand -20.7137 -11.5368
lfingers 7.12502
lthumb 5.65082 18.3679
rfemur -23.8836 8.75146 17.2637
rtibia 6.35309
rfoot -19.0593 -5.89831
rtoes -31.3773
lfemur -25.628 -10.4477 -18.7047
ltibia 7.56136
lfoot -7.53828 3.09099
ltoes -39.4883
59
root 9.54646 16.3169 9.50211 -152.225 -0.918956 178.248
lowerback -30.0568 -1.89085 -6.07631
upperback -2.44237 -1.28312 -0.59639
thorax 13.1117 -1.28064 2.06538
lowerneck -0.846096 -0.108792 -3.38552
upperneck 7.5435 -0.240445 10.94
head 2.64481 0.314295 4.29075
rclavicle -4.67144e-015 -5.96354e-015
rhumerus -35.2788 -21.4585 -78.5634
rradius 25.553
rwrist 4.70335
rhand -7.50847 -52.2133
rfingers 7.12502
rthumb 18.3817 -441.365
lclavicle -4.67144e-015 -5.96354e-015
lhumerus -29.1767 6.09715 82.0293
lradius 20.3694
lwrist -6.80139
lhand -20.9293 -11.5461
lfingers 7.12502
lthumb 5.44262 18.364
rfemur -23.8172 8.6416 17.3067
rtibia 6.29935
rfoot -19.0147 -5.83733
rtoes -31.2954
lfemur -25.5885 -10.3187 -18.7369
ltibia 7.53465
lfoot -7.52313 2.92821
ltoes -39.2914
60
root 9.54445 16.317 9.50179 -152.227 -0.934606 178.233
lowerback -30.0674 -1.92602 -6.08654
upperback -2.36902 -1.30933 -0.589271
thorax 13.2033 -1.29079 2.06808
lowerneck -0.873654 -0.0951667 -3.36012
upperneck 7.7177 -0.263594 11.3522
head 2.43045 0.342235 3.98367
rclavicle 6.85807e-015 2.06736e-014
rhumerus -35.4235 -22.0221 -78.1215
rradius 25.1791
rwrist 5.08895
rhand -7.80039 -52.0317
rfingers 7.12502
rthumb 18.1009 -441.209
lclavicle 6.85807e-015 2.06736e-014
lhumerus -29.1091 6.58956 81.7772
lradius 19.7762
lwrist -7.18103
lhand -20.9841 -11.3246
lfingers 7.12502
lthumb 5.38966 18.5869
rfemur -23.7814 8.65099 17.2786
rtibia 6.23188
rfoot -18.9344 -5.94
rtoes -31.1961
lfemur -25.6284 -10.2906 -18.7761
ltibia 7.63769
lfoot -7.56792 2.90566
ltoes -39.5179
61
root 9.54107 16.3183 9.50408 -152.209 -0.952136 178.217
lowerback -30.034 -1.9386 -6.06377
upperback -2.35774 -1.33077 -0.597301
thorax 13.203 -1.29782 2.03983
lowerneck -0.876521 -0.0844811 -3.36877
upperneck 7.68747 -0.24791 11.4624
head 2.42056 0.354665 4.01909
rclavicle 6.90777e-015 4.77083e-015
rhumerus -35.6273 -22.6233 -77.6101
rradius 24.7341
rwrist 5.56242
rhand -7.80655 -52.1241
rfingers 7.12502
rthumb 18.095 -441.302
lclavicle 6.90777e-015 4.77083e-015
lhumerus -29.1941 7.12205 81.4706
lradius 19.2446
lwrist -7.71448
lhand -20.823 -11.5506
lfingers 7.12502
lthumb 5.5452 18.3568
rfemur -23.7972 8.67222 17.2384
rtibia 6.20604
rfoot -18.8952 -5.97633
rtoes -31.0544
lfemur -25.7089 -10.3218 -18.8027
ltibia 7.77938
lfoot -7.67363 2.94729
ltoes -40.2018
